<svg version="1.1" xmlns="http://www.w3.org/2000/svg" xmlns:xlink="http://www.w3.org/1999/xlink" viewBox="0 0 172 172"><defs><linearGradient x1="34.87658" y1="89.14258" x2="34.87658" y2="25.08333" gradientUnits="userSpaceOnUse" id="color-1"><stop offset="0" stop-color="#92a3b0"></stop><stop offset="0.015" stop-color="#a3b5c4"></stop><stop offset="0.032" stop-color="#aec2d1"></stop><stop offset="0.046" stop-color="#b2c6d6"></stop></linearGradient><linearGradient x1="98.54167" y1="139.75" x2="98.54167" y2="111.08333" gradientUnits="userSpaceOnUse" id="color-2"><stop offset="0" stop-color="#92a3b0"></stop><stop offset="0.015" stop-color="#a3b5c4"></stop><stop offset="0.032" stop-color="#aec2d1"></stop><stop offset="0.046" stop-color="#b2c6d6"></stop></linearGradient><linearGradient x1="17.04233" y1="24.209" x2="26.45933" y2="33.626" gradientUnits="userSpaceOnUse" id="color-3"><stop offset="0" stop-color="#4319e0"></stop><stop offset="1" stop-color="#9a07d8"></stop></linearGradient><linearGradient x1="38.60325" y1="87.89917" x2="158.89217" y2="87.89917" gradientUnits="userSpaceOnUse" id="color-4"><stop offset="0" stop-color="#7530d6"></stop><stop offset="1" stop-color="#d229cf"></stop></linearGradient><linearGradient x1="35.83333" y1="55.45208" x2="160.65517" y2="55.45208" gradientUnits="userSpaceOnUse" id="color-5"><stop offset="0" stop-color="#dc42f2"></stop><stop offset="1" stop-color="#d142eb"></stop></linearGradient></defs><g fill="none" fill-rule="nonzero" stroke="none" stroke-width="1" stroke-linecap="butt" stroke-linejoin="miter" stroke-miterlimit="10" stroke-dasharray="" stroke-dashoffset="0" font-family="none" font-weight="none" font-size="none" text-anchor="none" style="mix-blend-mode: normal"><path d="M0,172v-172h172v172z" fill="none"></path><g><path d="M48.25317,89.14258c-1.66625,0 -3.15692,-1.16817 -3.50808,-2.8595l-9.94375,-48.3105c-0.68442,-3.31817 -3.6335,-5.72258 -7.01975,-5.72258h-6.28158c-1.978,0 -3.58333,-1.60533 -3.58333,-3.58333c0,-1.978 1.60533,-3.58333 3.58333,-3.58333h6.28158c6.76892,0 12.67425,4.81242 14.0395,11.44158l9.94375,48.3105c0.39775,1.93858 -0.84925,3.83417 -2.78783,4.23192c-0.24008,0.05375 -0.48375,0.07525 -0.72383,0.07525z" fill="url(#color-1)"></path><circle cx="37" cy="41" transform="scale(3.58333,3.58333)" r="3" fill="#474750"></circle><circle cx="37" cy="41" transform="scale(3.58333,3.58333)" r="1" fill="#ffffff" opacity="0.15"></circle><circle cx="19" cy="41" transform="scale(3.58333,3.58333)" r="3" fill="#474750"></circle><circle cx="19" cy="41" transform="scale(3.58333,3.58333)" r="1" fill="#ffffff" opacity="0.15"></circle><path d="M146.91667,139.75h-86c-7.90483,0 -14.33333,-6.4285 -14.33333,-14.33333c0,-7.90483 6.4285,-14.33333 14.33333,-14.33333h75.25c1.978,0 3.58333,1.60533 3.58333,3.58333c0,1.978 -1.60533,3.58333 -3.58333,3.58333h-75.25c-3.95242,0 -7.16667,3.21425 -7.16667,7.16667c0,3.95242 3.21425,7.16667 7.16667,7.16667h86c1.978,0 3.58333,1.60533 3.58333,3.58333c0,1.978 -1.60533,3.58333 -3.58333,3.58333z" fill="url(#color-2)"></path><path d="M28.66667,28.66667c0,3.956 -3.21067,7.16667 -7.16667,7.16667c-3.956,0 -7.16667,-3.21067 -7.16667,-7.16667c0,-3.956 3.21067,-7.16667 7.16667,-7.16667c3.956,0 7.16667,3.21067 7.16667,7.16667z" fill="url(#color-3)"></path><path d="M49.05583,112.4235c0.645,3.38267 3.60125,5.8265 7.04125,5.8265h88.33275c3.5045,0 6.493,-2.53342 7.06992,-5.98775l7.39242,-44.35808l-120.28892,-10.35583z" fill="url(#color-4)"></path><path d="M157.34775,53.449l-121.51442,-10.449l2.76992,14.54833l120.28533,10.35583l1.71642,-10.29133c0.34758,-2.07475 -1.161,-4.00258 -3.25725,-4.16383z" fill="url(#color-5)"></path><path d="M35.83333,86c-0.6665,0 -24.41683,0 -25.08333,0c-1.978,0 -3.58333,1.60533 -3.58333,3.58333c0,1.978 1.60533,3.58333 3.58333,3.58333c0.6665,0 24.41683,0 25.08333,0c1.978,0 3.58333,-1.60533 3.58333,-3.58333c0,-1.978 -1.60533,-3.58333 -3.58333,-3.58333z" fill="#a00dab"></path><path d="M32.25,68.08333c-0.6665,0 -28.00017,0 -28.66667,0c-1.978,0 -3.58333,1.60533 -3.58333,3.58333c0,1.978 1.60533,3.58333 3.58333,3.58333c0.6665,0 28.00017,0 28.66667,0c1.978,0 3.58333,-1.60533 3.58333,-3.58333c0,-1.978 -1.60533,-3.58333 -3.58333,-3.58333z" fill="#a00dab"></path><path d="M39.41667,103.91667c-0.6665,0 -20.8335,0 -21.5,0c-1.978,0 -3.58333,1.60533 -3.58333,3.58333c0,1.978 1.60533,3.58333 3.58333,3.58333c0.6665,0 20.8335,0 21.5,0c1.978,0 3.58333,-1.60533 3.58333,-3.58333c0,-1.978 -1.60533,-3.58333 -3.58333,-3.58333z" fill="#a00dab"></path></g></g></svg>