<svg version="1.1" xmlns="http://www.w3.org/2000/svg" xmlns:xlink="http://www.w3.org/1999/xlink" viewBox="0 0 172 172"><defs><linearGradient x1="58.03925" y1="10.27342" x2="138.33458" y2="161.293" gradientUnits="userSpaceOnUse" id="color-1"><stop offset="0" stop-color="#21ad64"></stop><stop offset="1" stop-color="#15873a"></stop></linearGradient><linearGradient x1="63.511" y1="23.1555" x2="129.94958" y2="148.10633" gradientUnits="userSpaceOnUse" id="color-2"><stop offset="0" stop-color="#2d2d2d"></stop><stop offset="0.495" stop-color="#1b1b1b"></stop><stop offset="0.869" stop-color="#262626"></stop><stop offset="1" stop-color="#262626"></stop></linearGradient><linearGradient x1="86" y1="71.69892" x2="86" y2="45.84158" gradientUnits="userSpaceOnUse" id="color-3"><stop offset="0" stop-color="#92a3b0"></stop><stop offset="0.099" stop-color="#a3b5c4"></stop><stop offset="0.174" stop-color="#aec2d1"></stop><stop offset="0.276" stop-color="#b2c6d6"></stop></linearGradient><linearGradient x1="86" y1="101.72008" x2="86" y2="78.67567" gradientUnits="userSpaceOnUse" id="color-4"><stop offset="0" stop-color="#7b7b7b"></stop><stop offset="1" stop-color="#262626"></stop></linearGradient></defs><g fill="none" fill-rule="nonzero" stroke="none" stroke-width="1" stroke-linecap="butt" stroke-linejoin="miter" stroke-miterlimit="10" stroke-dasharray="" stroke-dashoffset="0" font-family="none" font-weight="none" font-size="none" text-anchor="none" style="mix-blend-mode: normal"><path d="M0,172v-172h172v172z" fill="none"></path><g><path d="M150.5,35.83333c-39.85383,0 -40.41283,-21.5 -64.5,-21.5c-24.08717,0 -24.64617,21.5 -64.5,21.5c-1.978,0 -3.58333,1.60533 -3.58333,3.58333c0,0 0,20.984 0,32.25c0,4.93783 0.63783,9.718 1.76658,14.33333c10.52067,43.02508 64.78667,71.33342 64.78667,71.33342c0,0 0.75608,0.33325 1.53008,0.33325c0.72742,0 1.53008,-0.33325 1.53008,-0.33325c0,0 54.266,-28.30833 64.78667,-71.33342c1.12875,-4.61533 1.76658,-9.3955 1.76658,-14.33333c0,-11.266 0,-32.25 0,-32.25c0,-1.978 -1.60533,-3.58333 -3.58333,-3.58333z" fill="url(#color-1)"></path><path d="M86,145.84525c-11.13342,-6.58258 -48.07758,-30.51925 -55.87492,-62.39658c-0.9675,-3.95242 -1.45842,-7.91917 -1.45842,-11.782v-25.30908c20.89083,-1.36167 31.45092,-8.56058 40.02225,-14.40142c6.2995,-4.28567 10.09425,-6.87283 17.31108,-6.87283c7.21683,0 11.01158,2.58717 17.29675,6.86925c8.58208,5.848 19.13858,13.04692 40.03658,14.40858v25.3055c0,3.86283 -0.49092,7.826 -1.45842,11.77483c-7.79733,31.8845 -44.7415,55.82117 -55.87492,62.40375z" fill="url(#color-2)"></path><path d="M107.5,75.25h-7.16667v-10.75c0,-7.90483 -6.4285,-14.33333 -14.33333,-14.33333c-7.90483,0 -14.33333,6.4285 -14.33333,14.33333v10.75h-7.16667v-10.75c0,-11.85725 9.64275,-21.5 21.5,-21.5c11.85725,0 21.5,9.64275 21.5,21.5z" fill="url(#color-3)"></path><path d="M111.08333,111.08333h-50.16667c-1.978,0 -3.58333,-1.60533 -3.58333,-3.58333v-7.16667h57.33333v7.16667c0,1.978 -1.60533,3.58333 -3.58333,3.58333z" fill="#178247"></path><rect x="16" y="25" transform="scale(3.58333,3.58333)" width="16" height="3" fill="#21a366"></rect><rect x="16" y="22" transform="scale(3.58333,3.58333)" width="16" height="3" fill="#33c481"></rect><path d="M114.66667,78.83333h-57.33333v-7.16667c0,-1.978 1.60533,-3.58333 3.58333,-3.58333h50.16667c1.978,0 3.58333,1.60533 3.58333,3.58333z" fill="#61e3a7"></path><path d="M93.16667,86c0,-3.95958 -3.20708,-7.16667 -7.16667,-7.16667c-3.95958,0 -7.16667,3.20708 -7.16667,7.16667c0,3.00642 1.85617,5.57208 4.47917,6.63633v5.0095c0,1.4835 1.204,2.6875 2.6875,2.6875c1.4835,0 2.6875,-1.204 2.6875,-2.6875v-5.0095c2.623,-1.06425 4.47917,-3.62992 4.47917,-6.63633z" fill="url(#color-4)"></path></g></g></svg>