<svg version="1.1" xmlns="http://www.w3.org/2000/svg" xmlns:xlink="http://www.w3.org/1999/xlink" viewBox="0 0 172 172"><g fill="none" fill-rule="nonzero" stroke="none" stroke-width="1" stroke-linecap="butt" stroke-linejoin="miter" stroke-miterlimit="10" stroke-dasharray="" stroke-dashoffset="0" font-family="none" font-weight="none" font-size="none" text-anchor="none" style="mix-blend-mode: normal"><path d="M0,172v-172h172v172z" fill="none"></path><g><path d="M119.73216,9.02866h-67.55703c-1.55136,0 -2.80911,1.25775 -2.80911,2.80911v57.10198c0,1.16705 0.72159,2.21248 1.81205,2.62636l33.77852,12.82005c0.64231,0.24389 1.35114,0.24389 1.99345,0l33.77852,-12.82005c1.09112,-0.41388 1.81205,-1.45931 1.81205,-2.62636v-57.10198c0.00067,-1.55136 -1.25708,-2.80911 -2.80844,-2.80911z" fill="#478cf7"></path><path d="M53.39391,62.59859c-0.73906,0 -1.33703,-0.60469 -1.33703,-1.34375v-48.19359c0,-0.35542 0.14109,-0.70547 0.38969,-0.95406c0.24859,-0.24859 0.59797,-0.38969 0.94734,-0.38969h32.43813c0.73906,0 1.33703,0.60469 1.33703,1.34375c0,0.73973 -0.59797,1.34375 -1.33703,1.34375h-31.09438v46.83641c0.00672,0.00739 0.00672,0.00739 0.00672,0.01411c0,0.73839 -0.60469,1.34308 -1.35047,1.34308zM91.20031,14.40433c-0.73906,0 -1.33703,-0.60402 -1.33703,-1.34375c0,-0.74511 0.59797,-1.34375 1.33703,-1.34375c0.74578,0 1.35047,0.59864 1.35047,1.34375c0,0.73973 -0.60469,1.34375 -1.35047,1.34375z" fill="#5e9cf7"></path><path d="M119.73216,9.02866h-3.90964v53.19234c0,1.16705 -0.72159,2.21248 -1.81205,2.62636l-33.77852,12.82005c-0.64231,0.24389 -1.35114,0.24389 -1.99345,0l-28.87248,-10.95761v2.23063c0,1.16705 0.72159,2.21248 1.81205,2.62636l33.77852,12.82005c0.64231,0.24389 1.35114,0.24389 1.99345,0l33.77852,-12.82005c1.09112,-0.41388 1.81205,-1.45931 1.81205,-2.62636v-57.10266c0.00067,-1.55136 -1.25708,-2.80911 -2.80844,-2.80911z" fill="#377de2"></path><path d="M119.73216,9.02866h-0.55027v56.55172c0,1.16705 -0.72159,2.21248 -1.81205,2.62636l-33.77852,12.82005c-0.64231,0.24389 -1.35114,0.24389 -1.99345,0l-32.23186,-12.23283v0.1458c0,1.16705 0.72159,2.21248 1.81205,2.62636l33.77852,12.82005c0.64231,0.24389 1.35114,0.24389 1.99345,0l33.77852,-12.82005c1.09112,-0.41387 1.81205,-1.45931 1.81205,-2.62636v-57.10198c0.00067,-1.55136 -1.25708,-2.80911 -2.80844,-2.80911z" fill="#2266d3"></path><path d="M90.06283,92.00858h-8.12566v-10.42481c0,-2.24406 1.81877,-4.06283 4.06283,-4.06283v0c2.24406,0 4.06283,1.81877 4.06283,4.06283z" fill="#f79219"></path><circle cx="-42.39931" cy="223.41118" transform="rotate(-45.001) scale(0.67188,0.67188)" r="54.608" fill="#ffa91a"></circle><path d="M110.209,98.71255c5.67802,6.46075 9.1207,14.93309 9.1207,24.20967c0,20.26308 -16.42667,36.68908 -36.68975,36.68908c-9.27658,0 -17.74892,-3.44269 -24.20967,-9.1207c6.72413,7.65131 16.58255,12.48008 27.56905,12.48008c20.26308,0 36.68975,-16.426 36.68975,-36.68908c0.00067,-10.98583 -4.82877,-20.84492 -12.48008,-27.56905z" fill="#f79219"></path><circle cx="128" cy="187.955" transform="scale(0.67188,0.67188)" r="38.95" fill="#ef7816"></circle><g fill="#ffc91d"><path d="M87.892,106.28861l3.63484,11.18605c0.26606,0.81969 1.02998,1.37466 1.892,1.37466h11.051c2.15067,0 3.04494,2.752 1.30478,4.01647l-8.93997,6.49569c-0.69741,0.50659 -0.989,1.40422 -0.72227,2.22391l3.63484,11.18605c0.59528,1.83288 -1.50231,3.35669 -3.06106,2.22391l-9.37938,-6.81483c-0.77803,-0.56505 -1.83153,-0.56505 -2.61023,0l-9.37937,6.81483c-1.55875,1.13278 -3.65634,-0.39103 -3.06106,-2.22391l3.63484,-11.18605c0.26673,-0.81969 -0.02553,-1.71731 -0.72227,-2.22391l-8.93997,-6.49569c-1.74016,-1.26447 -0.84589,-4.01647 1.30478,-4.01647h11.051c0.86202,0 1.62527,-0.55497 1.892,-1.37466l3.63484,-11.18605c0.59192,-1.8322 3.18536,-1.8322 3.78064,0z"></path></g><g fill="#ffa91a"><path d="M87.30478,138.1805l9.37938,6.81483c1.55875,1.13278 3.65634,-0.39103 3.06106,-2.22391l-3.63484,-11.18605c-0.26606,-0.81969 0.02553,-1.71731 0.72227,-2.22391l8.93997,-6.49569c1.74016,-1.26447 0.84589,-4.01647 -1.30478,-4.01647h-11.051c-0.86202,0 -1.62527,-0.55497 -1.892,-1.37466l-3.63484,-11.18605c-0.29764,-0.91644 -1.09448,-1.37466 -1.892,-1.37466v32.84192c0.46023,0 0.91778,0.14177 1.3068,0.42463z"></path></g><g><path d="M104.67745,77.658l8.81567,-3.34594v-65.28341h-8.81567z" fill="#ffa91a"></path><path d="M113.49313,65.04355l-8.81567,3.34594v9.26852l3.74436,-1.42102l5.07131,-1.92492z" fill="#f79219"></path><path d="M58.50688,74.34767l8.81567,3.34527v-68.66428h-8.81567z" fill="#ffa91a"></path><path d="M58.50688,70.17869v4.16898l5.977,2.26825l2.83867,1.07702v-4.16831z" fill="#f79219"></path></g></g></g></svg>